<svg id="Layer_1" data-name="Layer 1" xmlns="http://www.w3.org/2000/svg" viewBox="0 0 512 512"><defs><style>.cls-1{fill:#cad8dd;}.cls-2{fill:#afc3c9;}.cls-3{fill:#dde5e8;}.cls-4{fill:#71c6c4;}.cls-5{opacity:0.06;}.cls-6{fill:#17292d;}</style></defs><title>man-4-flat</title><path class="cls-1" d="M288,307.2H224A172.8,172.8,0,0,0,51.2,480h0a32,32,0,0,0,32,32H428.8a32,32,0,0,0,32-32h0A172.8,172.8,0,0,0,288,307.2Z"/><polygon class="cls-2" points="256 486.4 204.8 448 230.4 358.4 281.6 358.4 307.2 448 256 486.4"/><path class="cls-3" d="M384,128v38.4a128,128,0,0,1-64,110.87V332.8l-64,38.4-64-38.4V277.27A128,128,0,0,1,128,166.4V128a128,128,0,0,1,256,0Z"/><path class="cls-4" d="M256,0A128,128,0,0,0,128,128v25.6l76.8-51.2S314.23,172.26,384,140.8V128A128,128,0,0,0,256,0Z"/><g class="cls-5"><path class="cls-6" d="M256,0a127.82,127.82,0,0,0-32,4.2A127.94,127.94,0,0,1,320,128v38.4a127.94,127.94,0,0,1-96,123.8A127.55,127.55,0,0,0,384,166.4V128A128,128,0,0,0,256,0Z"/></g></svg>